<?xml version="1.0"?>
<svg xmlns="http://www.w3.org/2000/svg" viewBox="0 0 64 64" width="512" height="512"><g id="Filled_outline" data-name="Filled outline"><circle cx="29" cy="42" r="12" style="fill:#e97424"/><path d="M21,46A7,7,0,0,1,7,46Z" style="fill:#f5f688"/><path d="M25,46A11,11,0,0,1,3,46H7a7,7,0,0,0,14,0Z" style="fill:#f1c056"/><rect x="41" y="17" width="20" height="38" style="fill:#92cdde"/><rect x="41" y="51" width="20" height="4" style="fill:#e97424"/><rect x="41" y="25" width="20" height="26" style="fill:#f1c056"/><polygon points="45 7 35 7 35 11 45 11 45 17 49 17 49 7 45 7" style="fill:#e97424"/><path d="M14,53a6.965,6.965,0,0,0,3.882-1.176L14,46l-3.882,5.824A6.965,6.965,0,0,0,14,53Z" style="fill:#f1d77e"/><rect x="21" y="39" width="2" height="2" style="fill:#f1c056"/><rect x="23" y="35" width="2" height="2" style="fill:#f1c056"/><rect x="56" y="46" width="2" height="2" style="fill:#fff"/><rect x="56" y="40" width="2" height="4" style="fill:#fff"/><path d="M50,16V6H34v6H44v4H40V35.1A12.98,12.98,0,0,0,16.36,45H2v1a11.994,11.994,0,0,0,21.23,7.658A13,13,0,0,0,40,48.9V56H62V16ZM36,10V8H48v8H46V10ZM8.09,47h4.041l-2.24,3.36A5.989,5.989,0,0,1,8.09,47Zm5.91.8,2.447,3.67a5.945,5.945,0,0,1-4.894,0Zm4.109,2.557L15.869,47H19.91A5.989,5.989,0,0,1,18.109,50.36ZM14,56a10.013,10.013,0,0,1-9.95-9H6.062a8,8,0,0,0,15.875,0H23.95A10.013,10.013,0,0,1,14,56Zm15-3a11.05,11.05,0,0,1-4.609-1.024A11.9,11.9,0,0,0,26,46V45H18.425A10.82,10.82,0,0,1,18,42,11,11,0,1,1,29,53ZM42,26H60V50H42ZM60,54H42V52H60ZM42,24V18H60v6Z"/><rect x="21" y="39" width="2" height="2"/><rect x="23" y="35" width="2" height="2"/><rect x="56" y="46" width="2" height="2"/><rect x="56" y="40" width="2" height="4"/></g></svg>
